<svg width="389" xmlns="http://www.w3.org/2000/svg" height="389" fill="none"><g mask="url(#b)" clip-path="url(#a)" data-testid="Mask"><defs><clipPath id="a" class="mask-clip-path"><polyline points="0,0 388.99999999999955,0 388.99999999999955,389 0,389"/></clipPath><filter id="c"><feFlood flood-color="#fff" result="FloodResult"/><feComposite in="FloodResult" in2="SourceGraphic" operator="in" result="comp"/></filter><mask width="389" maskUnits="userSpaceOnUse" height="389" class="mask-shape" x="0" id="b" data-old-y="0" data-old-width="389" data-old-x="0" y="0" data-old-height="389"><g filter="url(#c)"><path d="M194.5 0C301.847 0 389 87.153 389 194.5S301.847 389 194.5 389 0 301.847 0 194.5 87.153 0 194.5 0Z" style="fill: rgb(240, 240, 240); fill-opacity: 1;" class="fills" data-testid="Ellipse"/></g></mask></defs><path d="M104.433 57.466c130.22 0 235.942 105.722 235.942 235.942 0 130.219-105.722 235.941-235.942 235.941-130.22 0-235.942-105.722-235.942-235.941 0-130.22 105.722-235.942 235.942-235.942Z" style="fill: rgb(240, 240, 240); fill-opacity: 1;" class="fills" data-testid="Ellipse"/></g></svg>